<?xml version="1.0" encoding="UTF-8" standalone="no"?><!DOCTYPE svg PUBLIC "-//W3C//DTD SVG 1.1//EN" "http://www.w3.org/Graphics/SVG/1.1/DTD/svg11.dtd"><svg width="100%" height="100%" viewBox="0 0 1700 1013" version="1.1" xmlns="http://www.w3.org/2000/svg" xmlns:xlink="http://www.w3.org/1999/xlink" xml:space="preserve" xmlns:serif="http://www.serif.com/" style="fill-rule:evenodd;clip-rule:evenodd;stroke-linejoin:round;stroke-miterlimit:2;"><g id="Page-1"><g id="Black-on-White"><path id="Center-for-Humane-Te" d="M245.417,280c-53.75,0 -87.5,-36.667 -87.5,-97.083c0,-60 34.166,-97.084 87.5,-97.084c43.75,0 76.666,27.084 80.833,67.5l-32.917,0c-4.583,-23.75 -23.75,-39.166 -47.916,-39.166c-32.5,0 -52.917,26.666 -52.917,68.333c0,42.083 20.417,68.75 53.333,68.75c25,0 42.917,-13.333 47.917,-36.25l32.917,0c-5.834,40.833 -36.667,65 -81.25,65Zm164.583,-122.083c-19.167,0 -32.917,13.75 -34.167,34.166l67.5,0c-0.416,-20.833 -13.75,-34.166 -33.333,-34.166Zm33.333,76.666l30.417,0c-4.167,26.25 -29.583,44.584 -62.5,44.584c-42.083,0 -68.333,-27.917 -68.333,-72.5c0,-44.584 26.25,-73.75 67.083,-73.75c40,0 65,27.083 65,70.416l0,10.834l-99.583,0l0,2.083c0,22.917 14.583,38.333 36.25,38.333c15.833,-0.833 27.916,-8.333 31.666,-20Zm53.75,42.5l0,-142.5l31.25,0l0,24.584l0.834,0c8.333,-17.5 22.916,-26.25 44.583,-26.25c31.667,0 49.583,20 49.583,52.916l0,91.25l-32.5,0l0,-85c0,-20.416 -9.583,-31.666 -29.166,-31.666c-20,0 -32.084,14.166 -32.084,35l0,81.666l-32.5,0Zm162.084,-174.166l32.5,0l0,31.666l27.083,0l0,25l-27.083,0l0,75c0,11.667 5.416,17.5 17.083,17.5c3.333,0 7.5,-0.416 9.583,-0.833l0,25c-3.333,0.833 -10,1.25 -17.083,1.25c-30.417,0 -42.083,-10.833 -42.083,-38.333l0,-79.584l-19.584,0l0,-25l19.584,0l0,-31.666Zm140.416,55c-19.166,0 -32.916,13.75 -34.166,34.166l67.5,0c-0.417,-20.833 -13.75,-34.166 -33.334,-34.166Zm33.75,76.666l30.417,0c-4.167,26.25 -29.583,44.584 -62.5,44.584c-42.083,0 -68.333,-27.917 -68.333,-72.5c0,-44.584 26.25,-73.75 67.083,-73.75c40,0 65,27.083 65,70.416l0,10.834l-99.583,0l0,2.083c0,22.917 14.583,38.333 36.25,38.333c15.416,-0.833 27.5,-8.333 31.666,-20Zm53.334,42.5l0,-142.5l31.25,0l0,24.584l0.833,0c4.583,-16.667 17.5,-26.25 34.167,-26.25c4.166,0 7.916,0.416 10.416,1.25l0,29.583c-2.916,-1.25 -7.916,-1.667 -13.333,-1.667c-19.167,0 -30.417,12.5 -30.417,32.5l0,82.5l-32.916,0Zm162.5,0l0,-117.083l-19.584,0l0,-25l19.584,0l0,-12.917c0,-27.083 12.5,-38.333 42.916,-38.333c5.834,0 10.834,0.417 15.834,1.25l0,23.75c-2.917,-0.833 -6.667,-1.25 -10.417,-1.25c-11.667,0 -16.25,5 -16.25,15.833l0,11.25l27.083,0l0,25l-26.666,0l0,117.084l-32.5,0.416Zm139.166,2.084c-42.083,0 -68.333,-27.917 -68.333,-73.334c0,-45 26.667,-72.916 68.333,-72.916c42.084,0 68.75,27.916 68.75,72.916c0,45.417 -26.666,73.334 -68.75,73.334Zm0,-26.25c22.5,0 35.834,-17.5 35.834,-47.5c0,-30 -13.334,-47.5 -35.834,-47.5c-22.083,0 -35.416,17.5 -35.416,47.5c0,30.416 13.333,47.5 35.416,47.5Zm90.417,24.166l0,-142.5l31.25,0l0,24.584l0.833,0c4.584,-16.667 17.5,-26.25 34.167,-26.25c4.167,0 7.917,0.416 10.417,1.25l0,29.583c-2.917,-1.25 -7.917,-1.667 -13.334,-1.667c-19.166,0 -30.416,12.5 -30.416,32.5l0,82.5l-32.917,0Zm-955.833,316.667l-33.334,0l0,-81.667l-91.25,0l0,81.667l-33.75,0l0,-187.917l33.75,0l0,78.334l91.25,0l0,-78.334l33.334,0l0,187.917Zm155.833,-142.5l0,142.5l-31.25,0l0,-25l-0.833,0c-7.917,17.5 -22.084,26.667 -43.75,26.667c-30.834,0 -50.417,-20 -50.417,-52.917l0,-91.25l32.5,0l0,85c0,20.833 10,32.083 29.167,32.083c20,0 32.083,-13.75 32.083,-35l0,-81.666l32.5,0l0,-0.417Zm27.5,142.5l0,-142.5l31.25,0l0,25l0.833,0c6.25,-16.667 21.667,-26.667 40.417,-26.667c20,0 34.583,10 40,28.334l0.833,0c7.084,-17.5 24.167,-28.334 44.584,-28.334c27.916,0 46.666,18.75 46.666,47.084l0,97.083l-32.5,0l0,-89.167c0,-17.916 -9.583,-27.916 -26.25,-27.916c-16.25,0 -27.5,12.083 -27.5,29.583l0,87.083l-31.666,0l0,-90.833c0,-15.833 -10,-25.833 -25.834,-25.833c-16.25,0 -27.916,12.5 -27.916,30.416l0,86.667l-32.917,0Zm282.083,-23.333c19.584,0 34.584,-12.084 34.584,-29.584l0,-10.833l-32.5,2.083c-17.917,1.25 -27.084,7.917 -27.084,19.584c0,11.666 10,18.75 25,18.75Zm-9.583,25c-27.917,0 -47.917,-17.084 -47.917,-42.5c0,-25.417 19.584,-40 55.417,-42.084l37.083,-2.083l0,-10.417c0,-15 -10,-23.333 -27.5,-23.333c-14.583,0 -25.416,7.5 -27.5,19.167l-30,0c0.834,-26.25 25,-44.584 58.334,-44.584c35.416,0 58.75,18.334 58.75,46.667l0,97.5l-31.25,0l0,-22.917l-0.834,0c-7.916,15.417 -25.416,24.584 -44.583,24.584Zm103.75,-1.667l0,-142.5l31.25,0l0,24.583l0.833,0c8.334,-17.5 22.917,-26.25 44.584,-26.25c31.666,0 49.583,20 49.583,52.917l0,91.25l-32.5,0l0,-85c0,-20.417 -9.583,-31.667 -29.167,-31.667c-20,0 -32.083,14.167 -32.083,35l0,81.667l-32.5,0Zm213.75,-119.167c-19.167,0 -32.917,13.75 -34.167,34.167l67.5,0c-0.833,-20.417 -14.166,-34.167 -33.333,-34.167Zm33.333,76.667l30.417,0c-4.167,26.25 -29.583,44.583 -62.5,44.583c-42.083,0 -68.333,-27.916 -68.333,-72.5c0,-44.583 26.25,-73.75 67.083,-73.75c40,0 65,27.084 65,70.417l0,10.833l-99.583,0l0,2.084c0,22.916 14.583,38.333 36.25,38.333c15.833,-0.833 27.916,-7.917 31.666,-20Zm-884.583,359.583l-33.75,0l0,-159.583l-57.083,0l0,-28.333l147.916,0l0,28.333l-57.083,0l0,159.583Zm111.667,-119.166c-19.167,0 -32.917,13.75 -34.167,34.166l67.5,0c-0.417,-20.833 -13.75,-34.166 -33.333,-34.166Zm33.75,76.666l30.416,0c-4.166,26.25 -29.583,44.584 -62.5,44.584c-42.083,0 -68.333,-27.917 -68.333,-72.5c0,-45 26.25,-73.75 67.083,-73.75c40,0 65,27.083 65,70.416l0,10.834l-99.583,0l0,2.083c0,22.917 14.583,38.333 36.25,38.333c15.417,-0.833 27.5,-8.333 31.667,-20Zm177.916,-49.583l-30.416,0c-2.5,-15 -13.75,-25.833 -31.667,-25.833c-21.25,0 -35.417,17.916 -35.417,46.666c0,29.584 14.167,47.084 35.417,47.084c17.5,0 28.75,-9.167 31.667,-25l30.416,0c-2.916,31.25 -27.083,51.666 -62.5,51.666c-41.25,0 -68.333,-27.916 -68.333,-73.333c0,-44.583 26.667,-72.917 67.917,-72.917c37.5,-0.833 60.833,22.084 62.916,51.667Zm21.25,92.083l0,-196.666l32.084,0l0,79.166l0.833,0c8.333,-17.5 23.333,-26.25 45,-26.25c31.25,0 50,20.834 50,53.334l0,90.833l-32.5,0l0,-84.583c0,-20 -10,-32.084 -29.583,-32.084c-20.417,0 -32.917,14.167 -32.917,35.417l0,81.25l-32.917,-0.417Zm154.584,0l0,-142.5l31.25,0l0,24.584l0.833,0c8.333,-17.5 22.917,-26.25 44.583,-26.25c31.667,0 49.584,20 49.584,52.916l0,91.25l-32.917,0l0,-85c0,-20.416 -9.583,-31.666 -29.167,-31.666c-20,0 -32.083,14.166 -32.083,35l0,81.666l-32.083,0Zm215.416,2.084c-42.083,0 -68.333,-27.917 -68.333,-73.334c0,-45 26.667,-72.916 68.333,-72.916c42.084,0 68.75,27.916 68.75,72.916c0,45.417 -26.666,73.334 -68.75,73.334Zm0,-26.25c22.5,0 35.834,-17.5 35.834,-47.5c0,-30 -13.334,-47.5 -35.834,-47.5c-22.083,0 -35.416,17.5 -35.416,47.5c0,30 13.333,47.5 35.416,47.5Zm91.25,24.166l0,-196.666l32.5,0l0,196.666l-32.5,0Zm123.75,2.084c-42.083,0 -68.333,-27.917 -68.333,-73.334c0,-45 26.667,-72.916 68.333,-72.916c42.084,0 68.75,27.916 68.75,72.916c0,45.417 -26.25,73.334 -68.75,73.334Zm0,-26.25c22.5,0 35.834,-17.5 35.834,-47.5c0,-30 -13.334,-47.5 -35.834,-47.5c-22.083,0 -35.416,17.5 -35.416,47.5c0,30 13.333,47.5 35.416,47.5Zm152.917,-2.917c21.667,0 35.833,-17.5 35.833,-45c0,-27.5 -14.166,-45.417 -35.833,-45.417c-21.25,0 -35,17.917 -35,45.417c-0.417,27.917 13.333,45 35,45Zm0,78.333c-35.417,0 -60.833,-15.833 -63.333,-40.833l32.5,0c2.916,10.417 15.416,16.667 31.666,16.667c21.25,0 34.584,-10.834 34.584,-28.334l0,-24.166l-0.417,0c-7.5,15.416 -24.167,24.583 -44.583,24.583c-35,0 -58.75,-27.5 -58.75,-71.25c0,-44.167 23.333,-72.5 59.583,-72.5c20.417,0 36.667,9.583 45,25.417l0.833,0l0,-24.167l31.667,0l0,138.75c-0.417,35 -27.083,55.833 -68.75,55.833Zm111.667,0.417c-2.084,0 -10.834,-0.417 -12.917,-0.833l0,-25.834c1.667,0.417 6.667,0.417 8.75,0.417c13.75,0 21.667,-5.417 25.417,-18.75l1.666,-6.667l-50.833,-142.916l35.417,0l34.166,114.583l0.834,0l34.166,-114.583l34.167,0l-51.667,147.5c-12.083,35.416 -27.083,47.083 -59.166,47.083Z"/><path id="_x5B_" d="M0,0l69.167,0l0,24.167l-37.917,0l0,964.166l39.583,0l0,24.167l-70.833,0l0,-1012.5Z"/><path id="_x5B__1_" d="M1700,0l-69.167,0l0,24.167l37.917,0l0,964.166l-39.583,0l0,24.167l70.833,0l0,-1012.5Z"/></g></g></svg>