<?xml version="1.0" encoding="utf-8"?>
<!-- Generator: Adobe Illustrator 24.1.1, SVG Export Plug-In . SVG Version: 6.00 Build 0)  -->
<svg version="1.1" id="Layer_1" xmlns="http://www.w3.org/2000/svg" xmlns:xlink="http://www.w3.org/1999/xlink" x="0px" y="0px"
	 viewBox="0 0 408 243" style="enable-background:new 0 0 408 243;" xml:space="preserve">
<style type="text/css">
	.st0{fill-rule:evenodd;clip-rule:evenodd;fill:#FFFFFF;}
</style>
<desc>Created with Sketch.</desc>
<g id="Page-1">
	<g id="Black-on-White">
		<path id="Center-for-Humane-Te" class="st0" d="M58.9,67.2c-12.9,0-21-8.8-21-23.3c0-14.4,8.2-23.3,21-23.3
			c10.5,0,18.4,6.5,19.4,16.2h-7.9c-1.1-5.7-5.7-9.4-11.5-9.4c-7.8,0-12.7,6.4-12.7,16.4c0,10.1,4.9,16.5,12.8,16.5
			c6,0,10.3-3.2,11.5-8.7h7.9C77,61.4,69.6,67.2,58.9,67.2z M98.4,37.9c-4.6,0-7.9,3.3-8.2,8.2h16.2
			C106.3,41.1,103.1,37.9,98.4,37.9z M106.4,56.3h7.3c-1,6.3-7.1,10.7-15,10.7c-10.1,0-16.4-6.7-16.4-17.4s6.3-17.7,16.1-17.7
			c9.6,0,15.6,6.5,15.6,16.9v2.6H90.1v0.5c0,5.5,3.5,9.2,8.7,9.2C102.6,60.9,105.5,59.1,106.4,56.3z M119.3,66.5V32.3h7.5v5.9h0.2
			c2-4.2,5.5-6.3,10.7-6.3c7.6,0,11.9,4.8,11.9,12.7v21.9h-7.8V46.1c0-4.9-2.3-7.6-7-7.6c-4.8,0-7.7,3.4-7.7,8.4v19.6H119.3z
			 M158.2,24.7h7.8v7.6h6.5v6H166v18c0,2.8,1.3,4.2,4.1,4.2c0.8,0,1.8-0.1,2.3-0.2v6c-0.8,0.2-2.4,0.3-4.1,0.3
			c-7.3,0-10.1-2.6-10.1-9.2V38.3h-4.7v-6h4.7L158.2,24.7L158.2,24.7z M191.9,37.9c-4.6,0-7.9,3.3-8.2,8.2h16.2
			C199.8,41.1,196.6,37.9,191.9,37.9z M200,56.3h7.3c-1,6.3-7.1,10.7-15,10.7c-10.1,0-16.4-6.7-16.4-17.4s6.3-17.7,16.1-17.7
			c9.6,0,15.6,6.5,15.6,16.9v2.6h-23.9v0.5c0,5.5,3.5,9.2,8.7,9.2C196.1,60.9,199,59.1,200,56.3z M212.8,66.5V32.3h7.5v5.9h0.2
			c1.1-4,4.2-6.3,8.2-6.3c1,0,1.9,0.1,2.5,0.3v7.1c-0.7-0.3-1.9-0.4-3.2-0.4c-4.6,0-7.3,3-7.3,7.8v19.8L212.8,66.5L212.8,66.5z
			 M251.8,66.5V38.4h-4.7v-6h4.7v-3.1c0-6.5,3-9.2,10.3-9.2c1.4,0,2.6,0.1,3.8,0.3v5.7c-0.7-0.2-1.6-0.3-2.5-0.3
			c-2.8,0-3.9,1.2-3.9,3.8v2.7h6.5v6h-6.4v28.1L251.8,66.5L251.8,66.5z M285.2,67c-10.1,0-16.4-6.7-16.4-17.6
			c0-10.8,6.4-17.5,16.4-17.5c10.1,0,16.5,6.7,16.5,17.5C301.7,60.3,295.3,67,285.2,67z M285.2,60.7c5.4,0,8.6-4.2,8.6-11.4
			s-3.2-11.4-8.6-11.4c-5.3,0-8.5,4.2-8.5,11.4C276.7,56.6,279.9,60.7,285.2,60.7z M306.9,66.5V32.3h7.5v5.9h0.2
			c1.1-4,4.2-6.3,8.2-6.3c1,0,1.9,0.1,2.5,0.3v7.1c-0.7-0.3-1.9-0.4-3.2-0.4c-4.6,0-7.3,3-7.3,7.8v19.8L306.9,66.5L306.9,66.5z
			 M77.5,142.5h-8v-19.6H47.6v19.6h-8.1V97.4h8.1v18.8h21.9V97.4h8V142.5z M114.9,108.3v34.2h-7.5v-6h-0.2
			c-1.9,4.2-5.3,6.4-10.5,6.4c-7.4,0-12.1-4.8-12.1-12.7v-21.9h7.8v20.4c0,5,2.4,7.7,7,7.7c4.8,0,7.7-3.3,7.7-8.4v-19.6h7.8V108.3z
			 M121.5,142.5v-34.2h7.5v6h0.2c1.5-4,5.2-6.4,9.7-6.4c4.8,0,8.3,2.4,9.6,6.8h0.2c1.7-4.2,5.8-6.8,10.7-6.8
			c6.7,0,11.2,4.5,11.2,11.3v23.3h-7.8v-21.4c0-4.3-2.3-6.7-6.3-6.7c-3.9,0-6.6,2.9-6.6,7.1v20.9h-7.6v-21.8c0-3.8-2.4-6.2-6.2-6.2
			c-3.9,0-6.7,3-6.7,7.3v20.8L121.5,142.5L121.5,142.5z M189.2,136.9c4.7,0,8.3-2.9,8.3-7.1v-2.6l-7.8,0.5c-4.3,0.3-6.5,1.9-6.5,4.7
			S185.6,136.9,189.2,136.9z M186.9,142.9c-6.7,0-11.5-4.1-11.5-10.2s4.7-9.6,13.3-10.1l8.9-0.5v-2.5c0-3.6-2.4-5.6-6.6-5.6
			c-3.5,0-6.1,1.8-6.6,4.6h-7.2c0.2-6.3,6-10.7,14-10.7c8.5,0,14.1,4.4,14.1,11.2v23.4h-7.5V137h-0.2
			C195.7,140.7,191.5,142.9,186.9,142.9z M211.8,142.5v-34.2h7.5v5.9h0.2c2-4.2,5.5-6.3,10.7-6.3c7.6,0,11.9,4.8,11.9,12.7v21.9
			h-7.8v-20.4c0-4.9-2.3-7.6-7-7.6c-4.8,0-7.7,3.4-7.7,8.4v19.6H211.8z M263.1,113.9c-4.6,0-7.9,3.3-8.2,8.2h16.2
			C270.9,117.2,267.7,113.9,263.1,113.9z M271.1,132.3h7.3c-1,6.3-7.1,10.7-15,10.7c-10.1,0-16.4-6.7-16.4-17.4s6.3-17.7,16.1-17.7
			c9.6,0,15.6,6.5,15.6,16.9v2.6h-23.9v0.5c0,5.5,3.5,9.2,8.7,9.2C267.3,136.9,270.2,135.2,271.1,132.3z M58.8,218.6h-8.1v-38.3H37
			v-6.8h35.5v6.8H58.8V218.6z M85.6,190c-4.6,0-7.9,3.3-8.2,8.2h16.2C93.5,193.2,90.3,190,85.6,190z M93.7,208.4h7.3
			c-1,6.3-7.1,10.7-15,10.7c-10.1,0-16.4-6.7-16.4-17.4c0-10.8,6.3-17.7,16.1-17.7c9.6,0,15.6,6.5,15.6,16.9v2.6H77.4v0.5
			c0,5.5,3.5,9.2,8.7,9.2C89.8,213,92.7,211.2,93.7,208.4z M136.4,196.5h-7.3c-0.6-3.6-3.3-6.2-7.6-6.2c-5.1,0-8.5,4.3-8.5,11.2
			c0,7.1,3.4,11.3,8.5,11.3c4.2,0,6.9-2.2,7.6-6h7.3c-0.7,7.5-6.5,12.4-15,12.4c-9.9,0-16.4-6.7-16.4-17.6
			c0-10.7,6.4-17.5,16.3-17.5C130.3,183.9,135.9,189.4,136.4,196.5z M141.5,218.6v-47.2h7.7v19h0.2c2-4.2,5.6-6.3,10.8-6.3
			c7.5,0,12,5,12,12.8v21.8h-7.8v-20.3c0-4.8-2.4-7.7-7.1-7.7c-4.9,0-7.9,3.4-7.9,8.5v19.5L141.5,218.6L141.5,218.6z M178.6,218.6
			v-34.2h7.5v5.9h0.2c2-4.2,5.5-6.3,10.7-6.3c7.6,0,11.9,4.8,11.9,12.7v21.9H201v-20.4c0-4.9-2.3-7.6-7-7.6c-4.8,0-7.7,3.4-7.7,8.4
			v19.6H178.6z M230.3,219.1c-10.1,0-16.4-6.7-16.4-17.6c0-10.8,6.4-17.5,16.4-17.5c10.1,0,16.5,6.7,16.5,17.5
			C246.8,212.4,240.4,219.1,230.3,219.1z M230.3,212.8c5.4,0,8.6-4.2,8.6-11.4s-3.2-11.4-8.6-11.4c-5.3,0-8.5,4.2-8.5,11.4
			C221.8,208.6,225,212.8,230.3,212.8z M252.2,218.6v-47.2h7.8v47.2H252.2z M281.9,219.1c-10.1,0-16.4-6.7-16.4-17.6
			c0-10.8,6.4-17.5,16.4-17.5c10.1,0,16.5,6.7,16.5,17.5C298.4,212.4,292.1,219.1,281.9,219.1z M281.9,212.8c5.4,0,8.6-4.2,8.6-11.4
			s-3.2-11.4-8.6-11.4c-5.3,0-8.5,4.2-8.5,11.4C273.4,208.6,276.6,212.8,281.9,212.8z M318.6,212.1c5.2,0,8.6-4.2,8.6-10.8
			c0-6.6-3.4-10.9-8.6-10.9c-5.1,0-8.4,4.3-8.4,10.9C310.1,208,313.4,212.1,318.6,212.1z M318.6,230.9c-8.5,0-14.6-3.8-15.2-9.8h7.8
			c0.7,2.5,3.7,4,7.6,4c5.1,0,8.3-2.6,8.3-6.8v-5.8H327c-1.8,3.7-5.8,5.9-10.7,5.9c-8.4,0-14.1-6.6-14.1-17.1
			c0-10.6,5.6-17.4,14.3-17.4c4.9,0,8.8,2.3,10.8,6.1h0.2v-5.8h7.6v33.3C335,225.9,328.6,230.9,318.6,230.9z M345.4,231
			c-0.5,0-2.6-0.1-3.1-0.2v-6.2c0.4,0.1,1.6,0.1,2.1,0.1c3.3,0,5.2-1.3,6.1-4.5l0.4-1.6l-12.2-34.3h8.5l8.2,27.5h0.2l8.2-27.5h8.2
			l-12.4,35.4C356.7,228.2,353.1,231,345.4,231z"/>
		<polygon id="_x5B_" class="st0" points="0,0 16.6,0 16.6,5.8 7.5,5.8 7.5,237.2 17,237.2 17,243 0,243 		"/>
		<polygon id="_x5B__1_" class="st0" points="408,0 391.4,0 391.4,5.8 400.5,5.8 400.5,237.2 391,237.2 391,243 408,243 		"/>
	</g>
</g>
</svg>
